<?xml version="1.0" standalone="no"?>
<!DOCTYPE svg PUBLIC "-//W3C//DTD SVG 20010904//EN"
 "http://www.w3.org/TR/2001/REC-SVG-20010904/DTD/svg10.dtd">
<svg version="1.0" xmlns="http://www.w3.org/2000/svg"
 width="1593.000000pt" height="1593.000000pt" viewBox="0 0 1593.000000 1593.000000"
 preserveAspectRatio="xMidYMid meet">
<metadata>
Created by potrace 1.14, written by Peter Selinger 2001-2017
</metadata>
<g transform="translate(0.000000,1593.000000) scale(0.100000,-0.100000)"
fill="#000000" stroke="none">
<path d="M7040 15211 c-25 -15 -160 -99 -300 -186 -140 -87 -277 -173 -305
-190 -93 -60 -359 -222 -455 -277 -332 -191 -578 -304 -835 -384 -78 -24 -336
-92 -385 -101 -14 -2 -90 -17 -170 -33 -80 -16 -161 -32 -180 -35 -19 -3 -57
-10 -85 -15 -27 -6 -61 -12 -75 -15 -14 -3 -59 -12 -100 -20 -41 -8 -84 -17
-95 -19 -11 -2 -94 -22 -185 -44 -269 -66 -471 -136 -695 -242 -240 -114 -295
-136 -295 -120 0 12 105 149 213 279 195 235 280 382 250 435 -8 14 -20 9 -82
-34 -40 -28 -94 -67 -119 -87 -83 -67 -316 -257 -342 -280 -30 -26 -48 -41
-126 -108 -32 -27 -90 -77 -129 -110 -39 -33 -113 -96 -165 -140 -52 -44 -97
-82 -100 -85 -3 -3 -34 -30 -70 -60 -190 -161 -226 -196 -285 -280 -112 -160
-172 -323 -201 -555 -13 -102 -8 -405 8 -452 l14 -43 74 101 c118 160 329 345
385 337 24 -4 22 -23 -10 -93 -27 -57 -59 -161 -69 -220 l-6 -40 25 40 c14 22
25 51 25 65 0 61 96 176 235 282 126 95 462 299 630 383 115 57 319 145 336
145 5 0 17 4 27 10 51 29 324 108 502 145 149 30 409 47 395 25 -4 -7 -60 -83
-123 -169 -63 -86 -182 -257 -265 -381 -183 -275 -253 -366 -376 -494 l-96
-99 220 112 c121 61 243 124 270 140 28 15 86 47 130 71 44 23 139 75 210 115
72 39 162 89 200 110 86 47 401 205 408 205 3 0 38 15 79 34 218 101 473 181
703 221 158 27 533 28 723 1 66 -10 207 -39 220 -46 10 -5 -4 -31 -54 -96
-102 -136 -187 -274 -291 -474 -139 -266 -173 -326 -221 -393 -38 -53 -38 -63
-2 -44 14 7 44 21 67 30 23 9 61 25 85 36 138 61 395 141 568 176 220 45 351
60 525 60 121 0 159 -4 197 -18 68 -26 78 -43 36 -61 -178 -77 -256 -124 -352
-209 l-50 -44 55 8 c30 5 91 11 136 15 116 9 118 -4 18 -106 -45 -47 -74 -84
-70 -91 11 -16 94 -52 259 -109 449 -155 652 -300 957 -680 116 -143 249 -331
249 -350 0 -15 -7 -13 -102 36 -98 49 -237 98 -394 139 -106 27 -110 28 -184
40 -63 11 -203 14 -193 5 8 -8 60 -38 125 -72 20 -11 66 -46 101 -78 98 -90
146 -200 196 -445 10 -51 8 -331 -3 -395 -4 -19 -9 -53 -11 -75 -16 -146 -67
-371 -88 -393 -23 -22 -40 -10 -100 70 -96 129 -288 298 -338 298 -19 0 -18
-27 5 -97 56 -170 56 -416 0 -713 -18 -96 -16 -88 -34 -153 -15 -58 -23 -64
-58 -41 -29 18 -120 110 -159 162 -30 37 -44 41 -38 10 3 -13 7 -34 9 -48 3
-14 8 -50 11 -80 4 -30 9 -68 11 -85 3 -16 6 -76 6 -133 1 -80 -3 -107 -14
-119 -19 -19 -58 -2 -58 25 0 53 -178 250 -294 326 -171 113 -365 176 -551
180 -85 1 -156 -16 -240 -60 -98 -50 -330 -200 -358 -232 -18 -20 -18 -21 20
-63 43 -48 152 -154 228 -220 105 -93 324 -317 368 -376 86 -118 181 -333 158
-356 -11 -11 -113 36 -301 139 -177 98 -298 150 -387 169 -74 16 -173 20 -173
7 0 -7 184 -132 195 -132 7 0 240 -166 315 -224 92 -72 113 -96 99 -113 -18
-21 -285 -148 -374 -178 -62 -21 -108 -28 -208 -34 l-128 -6 71 -70 c39 -38
83 -90 99 -115 90 -143 218 -237 457 -336 49 -20 103 -42 119 -49 17 -7 59
-24 95 -38 36 -14 91 -37 122 -51 31 -14 59 -26 62 -26 17 0 278 -133 355
-182 51 -32 95 -58 96 -56 6 6 -53 223 -73 270 -64 146 -185 291 -348 416 -94
71 -108 86 -101 106 17 44 337 -45 471 -132 22 -15 43 -29 46 -32 3 -4 22 -17
44 -29 29 -18 40 -21 46 -11 16 26 -5 154 -95 583 -2 10 -13 51 -25 93 -11 41
-20 81 -20 89 0 33 38 11 84 -48 57 -74 266 -394 273 -419 3 -10 9 -18 14 -18
5 0 9 -6 9 -12 0 -7 17 -39 38 -70 20 -31 57 -89 82 -129 25 -39 57 -88 73
-108 15 -20 37 -49 50 -66 124 -164 360 -409 453 -470 94 -63 289 -132 422
-149 23 -3 61 -9 85 -12 39 -6 257 -13 257 -9 0 1 -48 22 -107 45 -236 94
-416 240 -605 490 -89 119 -96 130 -172 265 -166 296 -303 727 -310 973 -3
110 -10 105 134 98 125 -5 150 -11 245 -57 64 -30 209 -128 235 -158 3 -3 39
-35 80 -71 41 -35 101 -89 134 -120 32 -30 64 -59 70 -65 6 -5 52 -46 101 -91
194 -173 295 -247 372 -270 24 -7 50 -11 58 -8 13 5 13 10 -1 35 -8 16 -29 44
-47 63 -115 120 -184 197 -292 327 -224 268 -608 771 -636 834 -18 40 -18 40
4 43 12 1 101 -29 196 -67 96 -39 177 -69 178 -67 2 2 -17 33 -42 69 -70 101
-91 167 -53 167 7 0 36 -21 63 -46 120 -110 299 -203 460 -239 137 -30 118
-27 499 -75 282 -36 341 -41 325 -26 -3 3 -162 89 -229 124 -40 21 -174 123
-232 177 -106 99 -218 235 -321 390 -26 39 -50 75 -55 80 -28 36 -247 412
-310 532 -46 90 -51 113 -23 113 56 0 410 -114 431 -139 3 -3 25 -17 50 -30
73 -39 202 -125 294 -196 48 -37 86 -63 86 -58 -1 13 -110 156 -185 239 -64
72 -98 109 -210 229 -73 79 -127 158 -113 167 49 31 202 -76 463 -327 147
-141 246 -189 430 -209 130 -14 289 -26 283 -22 -2 2 -59 32 -128 67 -250 126
-379 218 -551 389 -122 121 -194 214 -230 296 -50 115 -98 286 -153 539 -110
504 -228 713 -531 942 -55 42 -102 78 -105 81 -3 2 15 2 40 -2 25 -3 65 -9 90
-12 25 -3 51 -7 59 -10 8 -3 30 -7 50 -10 56 -8 187 -42 289 -75 119 -38 138
-37 92 1 -203 173 -523 326 -865 415 -178 46 -215 58 -215 71 0 44 257 153
455 193 139 29 374 22 520 -13 145 -36 195 -45 195 -36 0 15 -96 70 -166 95
-56 21 -226 70 -312 90 -76 19 -201 47 -217 51 -11 2 -31 6 -45 9 -41 9 -123
26 -150 31 -14 3 -32 7 -40 9 -8 2 -31 7 -50 10 -19 3 -57 10 -85 15 -27 5
-63 12 -80 14 -96 16 -165 26 -200 31 -22 3 -49 7 -60 10 -11 2 -56 7 -100 10
-44 3 -102 8 -130 10 -27 2 -97 7 -155 10 -58 4 -106 8 -107 9 -2 1 23 20 54
42 31 21 66 53 79 69 l23 30 -47 1 c-101 1 -225 24 -237 44 -20 33 66 127 243
268 57 45 99 83 95 83 -12 2 -55 5 -178 13 -60 4 -129 9 -153 11 -23 2 -90 7
-149 10 -58 4 -114 8 -123 10 -10 2 -53 6 -96 10 -43 4 -90 8 -104 10 -14 2
-52 7 -85 10 -33 3 -73 8 -90 10 -30 4 -155 12 -295 20 -41 3 -183 5 -315 5
-413 0 -549 -11 -785 -65 -81 -18 -110 -19 -110 -2 0 26 193 211 390 374 95
78 238 184 349 258 99 67 156 118 147 133 -10 17 -89 15 -183 -3 -43 -9 -116
-19 -162 -22 -137 -10 -134 -8 294 210 350 178 609 335 700 423 157 153 311
370 381 537 15 34 33 77 41 95 7 17 12 32 11 32 -2 0 -23 -13 -48 -29z"/>
<path d="M10587 14824 c-2 -2 -71 -12 -132 -19 -119 -14 -239 -22 -420 -30
-60 -3 -159 -7 -220 -10 -134 -5 -403 -14 -665 -20 -464 -12 -625 -17 -860
-31 -140 -7 -185 -11 -247 -18 -29 -3 -77 -9 -105 -12 -91 -9 -247 -44 -312
-68 -90 -34 -138 -60 -253 -137 -226 -152 -363 -209 -500 -209 -49 0 -94 -4
-102 -9 -19 -12 -29 -81 -17 -111 14 -32 30 -46 86 -73 42 -21 59 -22 277 -22
251 0 288 -7 223 -42 -45 -25 -212 -153 -198 -153 2 0 26 7 53 16 102 31 225
43 405 38 96 -2 191 -6 210 -9 19 -2 60 -7 90 -10 30 -4 89 -13 130 -21 41 -7
91 -16 110 -19 19 -3 63 -11 98 -19 43 -9 62 -9 62 -2 -1 32 -282 206 -557
345 -115 58 -183 98 -183 107 0 34 220 105 374 121 174 17 372 7 558 -31 302
-62 643 -204 1108 -463 248 -138 456 -243 481 -243 18 0 59 -36 59 -51 0 -7
-21 -8 -62 -4 -72 8 -198 9 -243 1 -16 -3 -57 -8 -90 -11 -272 -28 -717 -152
-692 -192 6 -10 91 -26 202 -38 115 -13 286 -40 371 -60 34 -8 73 -16 85 -19
58 -10 199 -47 248 -64 86 -29 76 -41 -36 -40 -86 0 -137 -3 -233 -17 -73 -10
-109 -15 -150 -20 -25 -3 -56 -8 -70 -10 -14 -3 -41 -7 -60 -10 -19 -3 -36 -7
-37 -9 -1 -1 46 -10 105 -19 173 -28 341 -71 905 -231 l78 -23 -63 -79 c-34
-43 -65 -81 -69 -84 -14 -11 -102 -146 -125 -192 -14 -27 -22 -54 -18 -59 6
-11 88 -7 159 7 196 38 445 46 445 14 0 -9 -168 -117 -199 -127 -9 -4 -27 -14
-41 -23 -14 -10 -62 -36 -108 -60 -46 -23 -82 -44 -80 -46 2 -1 47 -4 100 -5
53 -1 121 -6 150 -11 100 -18 233 -51 262 -65 46 -24 37 -27 -202 -73 -182
-36 -267 -94 -381 -260 -34 -50 -61 -93 -59 -95 5 -5 143 65 212 107 108 65
230 98 374 100 160 1 257 -23 425 -109 l69 -35 -7 63 c-8 82 -34 208 -47 232
-7 14 -5 23 7 37 44 49 261 -17 388 -118 111 -88 161 -207 161 -382 -1 -254
-133 -495 -359 -655 -304 -215 -590 -219 -761 -9 -81 99 -101 295 -37 367 26
28 9 30 -44 6 -69 -31 -130 -75 -188 -135 -181 -186 -156 -403 75 -635 154
-156 278 -219 493 -249 72 -11 263 -14 325 -5 94 12 122 18 177 31 33 9 98 31
146 50 138 54 154 48 154 -58 -1 -40 -4 -91 -7 -113 -9 -51 -57 -322 -63 -355
-3 -14 -10 -50 -16 -80 -6 -30 -13 -68 -15 -85 -30 -191 -50 -268 -67 -262 -6
2 -36 45 -67 96 -87 145 -195 273 -352 418 -120 111 -372 281 -441 298 -26 7
-27 6 -18 -19 12 -30 38 -175 55 -313 8 -59 17 -119 21 -143 3 -14 7 -41 10
-60 10 -60 25 -123 42 -178 21 -71 9 -85 -44 -50 -21 14 -54 40 -73 57 -91 83
-489 371 -513 371 -14 0 1 -35 101 -240 265 -546 304 -630 398 -863 153 -379
277 -801 365 -1245 21 -109 29 -126 36 -79 2 12 10 56 18 97 24 124 36 230 50
440 3 41 8 201 11 355 3 154 7 294 9 310 2 17 3 47 4 68 1 26 5 37 13 35 17
-6 42 -82 97 -302 71 -281 89 -313 110 -199 31 159 32 434 4 632 l-6 44 49
-54 c170 -187 315 -437 414 -709 39 -109 71 -173 82 -162 9 9 25 88 33 169 3
32 8 74 10 93 20 183 28 729 12 905 -17 193 -18 235 -9 235 8 0 206 -160 222
-179 3 -3 39 -35 80 -71 41 -36 77 -68 80 -71 6 -6 223 -193 243 -208 49 -39
128 -112 225 -210 144 -145 236 -283 370 -553 148 -300 207 -453 302 -781 28
-95 55 -190 62 -212 6 -22 12 -44 14 -50 1 -5 13 -55 27 -110 24 -91 50 -201
63 -265 12 -53 13 -90 5 -90 -12 0 -53 34 -122 102 -64 62 -166 145 -263 213
-83 59 -85 79 19 -225 103 -303 178 -594 210 -815 3 -23 7 -52 10 -65 22 -114
47 -365 60 -610 7 -114 7 -549 1 -665 -5 -96 -17 -287 -21 -320 -1 -16 -5 -64
-9 -105 -7 -78 -8 -85 -21 -190 -5 -36 -8 -68 -7 -72 1 -5 -5 -8 -13 -8 -18 0
-28 19 -66 127 -58 165 -129 302 -263 503 -38 58 -72 107 -75 110 -3 3 -33 41
-65 85 -33 44 -62 82 -65 85 -4 3 -26 30 -51 60 -115 140 -417 462 -453 482
-10 5 -21 8 -23 5 -2 -2 2 -31 9 -63 18 -76 15 -175 -9 -334 -16 -103 -81
-321 -146 -493 -58 -151 -80 -156 -103 -21 -7 43 -16 98 -19 121 -30 231 -186
535 -463 904 -78 104 -148 195 -155 203 -7 8 -29 33 -48 57 -47 57 -283 333
-334 390 -91 100 -175 196 -212 241 -55 66 -68 69 -60 16 4 -24 13 -63 20 -88
37 -120 149 -467 157 -485 27 -64 119 -413 133 -505 3 -19 8 -46 10 -60 35
-197 55 -607 56 -1150 0 -254 -3 -347 -13 -356 -7 -8 -39 65 -108 247 -126
335 -329 740 -490 979 -57 84 -200 262 -234 290 -16 13 -17 12 -12 -15 4 -17
9 -41 11 -55 2 -14 12 -52 21 -85 21 -78 19 -70 50 -210 26 -120 71 -350 81
-415 3 -19 7 -42 9 -50 2 -8 6 -28 9 -45 24 -151 80 -472 97 -560 11 -60 22
-117 23 -125 2 -13 8 -42 32 -150 3 -14 7 -36 10 -50 28 -137 112 -417 164
-546 168 -412 376 -647 1030 -1162 361 -285 428 -341 580 -486 136 -131 215
-225 280 -337 33 -57 39 -64 46 -56 6 6 -6 72 -31 170 -27 109 -166 500 -227
642 -57 131 -168 333 -253 460 -123 185 -263 351 -485 576 -382 387 -418 436
-217 303 54 -36 164 -100 244 -141 l145 -76 -18 34 c-9 19 -27 50 -40 71 -62
98 -221 573 -212 632 3 18 16 8 88 -65 94 -94 189 -179 325 -290 218 -178 372
-320 455 -419 30 -36 58 -69 62 -75 8 -9 7 25 -7 255 -3 47 -8 123 -10 170 -6
85 -12 177 -20 300 -8 104 -24 267 -31 315 -4 26 9 16 106 -85 160 -167 248
-295 361 -521 67 -133 142 -318 195 -476 20 -59 39 -117 44 -128 35 -85 181
-652 234 -908 2 -7 6 -23 9 -37 23 -93 57 -240 61 -264 3 -16 7 -30 9 -33 35
-34 357 939 502 1517 27 109 91 407 101 470 3 19 10 55 15 79 5 24 12 65 15
90 3 25 7 48 9 51 2 3 6 34 10 70 4 36 9 73 10 82 2 9 7 49 10 90 4 40 9 87
11 103 29 287 21 649 -22 910 -37 226 -90 389 -204 628 -28 60 -50 113 -48
118 6 18 157 -97 342 -260 113 -99 275 -272 349 -371 43 -58 81 -109 85 -115
31 -40 135 -220 183 -315 56 -113 124 -283 136 -340 9 -46 21 -35 25 22 7 110
-4 767 -17 973 -1 22 -6 108 -9 190 -4 83 -9 161 -11 175 -2 14 -7 68 -10 120
-4 52 -8 102 -10 111 -2 9 -6 40 -10 69 -7 51 -9 67 -20 120 -2 14 -7 41 -10
60 -5 31 -53 268 -59 295 -2 6 -6 24 -10 40 -4 17 -14 57 -22 90 -8 33 -17 67
-19 75 -45 193 -178 577 -279 803 -134 299 -341 651 -549 932 -24 33 -219 277
-227 285 -3 3 -36 41 -75 85 -84 96 -163 179 -354 374 -162 165 -226 237 -226
254 0 36 265 -6 470 -74 33 -11 80 -27 104 -34 l44 -14 -29 31 c-67 73 -123
127 -184 177 -36 30 -67 57 -70 60 -3 3 -66 51 -140 107 -140 104 -174 133
-167 141 5 5 265 4 372 -1 169 -9 340 -28 540 -62 173 -29 506 -106 650 -151
217 -67 350 -118 517 -197 54 -25 102 -46 108 -46 46 0 -54 186 -213 400 -146
195 -382 426 -617 606 -112 85 -211 154 -221 154 -5 0 -9 3 -9 8 0 4 -9 12
-20 17 -11 6 -70 41 -132 79 -140 85 -404 216 -563 280 -174 70 -535 187 -625
202 -14 3 -33 7 -42 10 -25 7 -286 61 -383 78 -16 3 -41 8 -55 11 -69 14 -143
26 -189 31 -43 5 -51 3 -51 -11 0 -12 106 -137 140 -165 20 -16 189 -234 228
-294 102 -156 192 -368 177 -416 -10 -31 -30 -25 -103 31 -150 114 -514 252
-752 284 -25 3 -52 8 -60 10 -17 5 -70 11 -180 21 -41 3 -76 8 -78 9 -2 2 23
24 54 50 31 25 80 79 107 118 51 74 127 174 182 238 16 19 39 47 50 60 39 48
120 144 125 149 22 20 160 205 203 272 118 186 170 361 170 578 1 167 -34 314
-112 475 -77 157 -140 243 -327 441 -63 66 -121 130 -129 141 -14 20 -13 22
17 32 44 14 190 47 253 57 28 4 52 8 55 9 7 2 101 16 135 20 185 25 251 32
385 40 238 13 295 17 298 20 3 3 -72 40 -203 100 -119 54 -208 69 -550 90 -49
3 -121 8 -160 10 -38 3 -110 7 -160 10 -312 17 -471 62 -714 203 -121 70 -650
409 -675 433 -20 18 -19 19 15 33 19 8 84 24 144 36 157 31 347 106 470 184
44 29 105 88 105 103 0 17 -16 16 -76 -2 -62 -19 -167 -29 -314 -29 -104 0
-320 11 -395 19 -16 2 -61 6 -100 10 -38 3 -101 11 -140 16 -38 5 -88 12 -110
15 -22 2 -65 9 -95 15 -30 6 -68 13 -85 15 -16 3 -73 16 -125 30 -96 25 -153
51 -153 69 1 11 104 54 208 85 156 48 415 163 491 218 38 28 30 43 -21 41 -25
-2 -46 -4 -48 -5z"/>
<path d="M4833 11925 c-48 -74 -126 -194 -172 -267 -215 -337 -401 -566 -533
-655 -141 -95 -254 -108 -260 -30 -1 15 -7 27 -13 27 -26 0 -107 -110 -107
-145 0 -34 57 -102 106 -127 29 -15 60 -21 106 -21 100 -1 135 6 355 67 162
45 284 72 365 81 25 3 56 7 70 10 35 6 188 20 345 30 342 23 382 38 725 263
l182 120 -89 15 c-93 17 -189 25 -368 32 -60 2 -119 4 -130 5 -39 1 -48 14
-32 46 9 16 24 38 34 49 30 33 75 106 69 113 -6 5 -83 -16 -101 -29 -14 -10
-263 -119 -307 -135 -21 -7 -39 -10 -42 -6 -5 9 27 72 81 159 84 136 75 157
-29 70 -107 -90 -241 -167 -289 -167 -24 0 -21 16 16 90 27 54 58 167 85 315
19 107 32 225 25 225 -2 0 -44 -61 -92 -135z m183 -683 c31 -25 57 -70 50 -87
-6 -18 -80 -21 -121 -5 -44 17 -50 76 -11 102 19 13 60 8 82 -10z"/>
<path d="M1527 11374 c-4 -4 -7 -17 -7 -28 -1 -26 -18 -49 -49 -65 -21 -12
-23 -18 -17 -60 10 -72 55 -183 86 -213 26 -24 35 -26 97 -24 84 3 177 28 257
68 199 99 158 196 -89 212 -115 7 -181 31 -241 87 -17 16 -33 26 -37 23z"/>
<path d="M6175 11104 c-79 -28 -183 -83 -370 -196 -77 -47 -194 -113 -260
-148 -159 -83 -156 -80 -111 -126 20 -20 36 -41 36 -47 0 -6 -79 -7 -220 -3
l-220 6 36 -73 c46 -91 90 -157 120 -180 33 -25 30 -45 -8 -61 -43 -18 -101
-12 -184 19 -68 25 -277 128 -301 147 -9 7 -13 -9 -15 -66 l-3 -77 -100 62
c-190 117 -244 138 -265 100 -8 -15 -5 -25 14 -48 34 -41 40 -55 110 -246 117
-321 246 -540 416 -707 65 -64 181 -160 193 -160 11 0 -18 47 -109 180 -111
162 -174 307 -174 400 0 69 40 74 121 14 67 -49 160 -75 394 -109 22 -4 57
-11 79 -16 21 -6 40 -8 43 -5 8 7 -62 93 -108 133 -20 18 -42 46 -47 63 -10
26 -8 31 11 42 12 6 38 13 58 14 43 3 159 39 212 66 20 10 37 16 37 13 0 -6
151 83 169 100 12 12 3 19 -65 50 -133 61 -185 89 -211 115 l-25 25 27 22 c14
13 33 23 41 23 36 0 135 80 283 228 62 62 150 146 195 185 224 200 385 252
489 159 19 -16 19 -16 12 8 -33 111 -149 147 -300 94z"/>
<path d="M885 10228 c-61 -45 -171 -143 -246 -217 -186 -186 -215 -247 -213
-447 1 -45 7 -106 14 -135 44 -186 304 -544 565 -780 86 -77 182 -187 204
-234 13 -28 26 -72 29 -100 2 -27 7 -54 12 -58 7 -8 46 49 80 118 25 49 170
187 275 262 101 72 256 165 440 263 449 239 669 439 714 648 25 117 7 182 -50
182 -43 0 -141 -48 -249 -123 -119 -83 -240 -153 -285 -166 -104 -29 -272 41
-410 171 -16 16 -56 42 -89 58 -56 28 -64 30 -170 27 -138 -4 -158 -12 -271
-123 -47 -46 -89 -84 -92 -84 -3 0 -40 20 -82 44 -139 80 -232 82 -430 12 -89
-31 -131 -34 -131 -8 0 73 237 445 426 669 47 55 80 103 72 103 -2 0 -53 -37
-113 -82z"/>
<path d="M647 8408 c-55 -64 -150 -205 -188 -281 -45 -89 -191 -339 -248 -423
-33 -49 -58 -90 -57 -92 2 -1 52 17 112 42 74 30 113 41 121 35 19 -17 8 -111
-22 -168 -14 -29 -82 -135 -150 -235 -68 -101 -136 -209 -153 -242 -51 -102
-72 -208 -52 -268 13 -40 40 -49 41 -13 2 81 35 132 181 276 103 102 242 221
259 221 16 0 28 -45 33 -133 8 -125 35 -178 155 -296 135 -135 241 -225 241
-205 0 3 -41 108 -91 233 -50 124 -100 251 -111 281 -25 71 -77 237 -82 264
-3 12 -14 66 -26 121 -23 112 -32 305 -19 403 19 135 30 180 94 376 25 77 45
145 45 153 0 28 -31 10 -83 -49z"/>
<path d="M2320 8424 c-41 -35 -77 -38 -196 -19 -193 31 -254 37 -254 27 0 -4
46 -22 103 -40 56 -18 176 -63 267 -99 172 -68 258 -96 272 -87 4 3 8 16 8 30
0 33 21 39 72 21 24 -9 93 -33 153 -55 109 -39 205 -60 224 -48 7 5 7 15 0 33
-5 14 -7 28 -5 31 3 2 44 -12 92 -33 115 -50 205 -78 345 -109 142 -32 169
-33 169 -7 0 30 -5 30 285 17 112 -5 155 -1 155 15 0 15 -42 27 -148 45 -85
14 -212 52 -361 108 -53 21 -74 15 -101 -29 -31 -50 -75 -61 -144 -38 -55 19
-182 84 -318 164 -27 16 -54 29 -61 29 -7 0 -24 -20 -39 -45 -42 -69 -61 -77
-136 -60 -80 19 -186 72 -256 130 -31 25 -64 45 -75 45 -11 0 -33 -12 -51 -26z"/>
<path d="M2093 8086 c-4 -11 -8 -28 -9 -36 -4 -22 -31 -38 -62 -34 -104 12
-139 2 -111 -32 44 -54 189 -121 283 -131 l59 -6 -6 31 c-10 50 1 47 208 -48
120 -55 214 -91 297 -112 89 -22 115 -19 98 11 -20 38 11 34 111 -14 117 -56
152 -57 147 -2 l-3 32 115 -4 c63 -2 151 2 195 9 126 19 319 69 420 109 76 30
38 31 -120 1 -127 -24 -184 -30 -281 -31 -141 -2 -206 10 -371 68 -56 19 -109
33 -118 30 -8 -4 -15 -17 -15 -31 0 -50 -38 -44 -315 49 -201 68 -447 147
-482 155 -28 7 -33 5 -40 -14z"/>
<path d="M1325 7840 c-4 -6 -9 -34 -11 -63 -14 -159 -82 -268 -242 -390 -35
-27 -62 -51 -59 -53 5 -6 32 -12 55 -13 21 -2 14 -22 -57 -166 -101 -205 -106
-262 -13 -144 208 261 375 370 558 364 104 -3 166 -37 290 -160 55 -55 147
-153 204 -218 118 -135 185 -197 212 -197 17 0 19 7 18 78 -2 121 -1 137 13
156 13 17 15 17 48 -11 19 -17 48 -37 66 -46 61 -32 365 -103 563 -133 19 -3
60 -9 90 -14 30 -6 73 -12 95 -15 21 -2 73 -9 115 -15 42 -6 94 -13 115 -15
96 -12 269 -37 345 -51 14 -2 52 -8 85 -14 204 -33 355 -98 451 -194 104 -104
129 -178 121 -365 l-5 -120 24 9 c58 22 247 127 334 185 97 64 252 195 304
256 35 42 108 154 124 192 14 34 -5 38 -33 7 -34 -37 -111 -79 -175 -96 -63
-16 -219 -22 -285 -10 -16 3 -57 10 -90 15 -134 23 -257 54 -484 122 -254 77
-437 129 -531 151 -88 20 -97 22 -190 38 -52 9 -79 13 -152 25 -30 5 -229 40
-286 50 -49 9 -138 25 -162 30 -14 3 -52 10 -85 16 -136 24 -168 38 -269 119
-53 43 -114 93 -134 112 -75 68 -228 194 -267 219 -22 14 -53 29 -70 33 l-30
8 38 30 c20 16 37 33 37 38 0 8 -32 17 -165 45 -156 34 -303 94 -425 173 -69
45 -75 48 -85 32z"/>
<path d="M5658 6802 c-3 -10 3 -45 14 -78 31 -96 31 -144 2 -236 -129 -410
-595 -907 -921 -984 -256 -61 -549 42 -948 331 -159 115 -321 225 -330 225
-10 0 1 -88 25 -200 28 -131 43 -250 31 -250 -18 0 -110 83 -288 258 l-95 93
7 -57 c3 -32 9 -62 12 -67 6 -10 5 -173 -2 -212 -9 -51 -25 -93 -41 -105 -24
-20 -87 27 -245 182 -38 38 -70 67 -70 65 -1 -1 -3 -76 -4 -167 -4 -224 -15
-319 -39 -321 -39 -5 -107 6 -221 36 -118 31 -310 92 -360 115 -11 5 -47 20
-81 34 -242 99 -402 237 -562 486 -51 80 -117 181 -145 225 -29 44 -60 81 -69
83 -16 3 -18 -7 -14 -125 4 -140 6 -155 41 -288 24 -95 59 -192 119 -337 36
-87 43 -118 28 -118 -4 0 -41 20 -82 44 -40 24 -79 42 -86 39 -14 -5 -11 -14
47 -128 92 -179 158 -401 176 -596 14 -153 7 -612 -12 -764 -5 -42 -14 -129
-21 -205 -3 -36 -7 -72 -9 -80 -2 -8 -7 -41 -10 -73 -4 -32 -8 -66 -10 -76 -2
-10 -6 -42 -10 -71 -4 -29 -8 -60 -10 -69 -1 -9 -6 -41 -10 -71 -4 -30 -9 -63
-10 -72 -2 -9 -6 -44 -10 -77 -3 -33 -7 -68 -9 -78 -2 -10 -7 -56 -11 -102 -4
-47 -9 -94 -12 -105 -3 -12 -6 -136 -8 -276 -3 -211 0 -273 15 -360 57 -330
170 -570 360 -760 67 -68 190 -170 204 -170 3 0 22 -12 43 -26 61 -41 274
-145 284 -138 11 7 -11 44 -48 84 -35 37 -129 235 -146 310 -14 58 -49 248
-61 325 -9 61 -16 111 -22 160 -3 28 -8 58 -10 69 -15 80 -25 254 -14 261 15
10 38 -24 137 -202 126 -226 118 -213 188 -318 247 -373 566 -687 865 -852 30
-17 78 -43 105 -58 201 -110 535 -205 815 -231 30 -3 61 -7 68 -10 20 -6 338
-17 332 -11 -3 2 -57 23 -121 45 -146 50 -206 76 -294 125 -289 161 -575 432
-814 771 -138 195 -316 513 -396 706 -14 36 -33 79 -40 96 -98 213 -231 706
-251 929 -14 147 -9 374 10 445 30 116 57 98 111 -75 19 -62 48 -138 65 -169
25 -48 107 -166 162 -231 9 -11 33 -40 53 -65 49 -59 111 -126 124 -134 8 -5
8 1 1 19 -36 94 -62 256 -65 396 -2 80 0 151 4 158 5 8 21 -26 41 -86 58 -177
120 -273 267 -414 99 -95 197 -164 307 -214 73 -34 275 -97 346 -108 19 -3 64
-11 100 -17 57 -9 139 -20 260 -35 19 -2 67 -7 105 -10 39 -3 88 -8 110 -10
22 -2 85 -7 140 -10 55 -3 132 -8 170 -10 39 -2 117 -7 175 -10 224 -11 308
-16 380 -21 136 -9 296 -22 350 -29 19 -3 62 -7 95 -10 103 -10 223 -29 340
-55 28 -5 61 -13 75 -15 47 -10 185 -57 255 -87 91 -40 180 -91 290 -170 50
-36 96 -68 102 -72 18 -10 -129 225 -195 312 -112 150 -269 309 -402 409 -119
89 -304 164 -645 258 -427 119 -569 163 -662 207 -43 20 -58 47 -25 47 9 0
103 0 207 0 105 0 235 -2 290 -4 142 -6 313 -16 338 -20 12 -2 51 -6 86 -10
227 -21 475 -79 651 -152 190 -80 338 -182 514 -355 48 -49 90 -88 91 -88 2 0
2 8 1 18 -2 9 -7 37 -11 62 -26 169 -152 470 -255 610 -49 68 -73 110 -66 117
7 7 61 -14 106 -42 19 -12 60 -35 90 -52 92 -50 389 -232 500 -306 344 -229
583 -420 821 -657 329 -327 549 -646 710 -1030 65 -154 137 -380 190 -597 7
-29 17 -53 21 -53 5 0 7 3 5 8 -3 4 -8 59 -11 122 -15 252 -44 440 -106 675
-148 565 -443 1125 -804 1529 -58 64 -168 175 -275 276 -16 14 -380 331 -431
374 -188 159 -619 509 -755 613 -124 96 -237 179 -350 258 -299 210 -438 328
-462 393 -7 20 -7 32 -1 32 17 0 705 -285 893 -370 22 -10 122 -55 222 -99
320 -141 517 -247 767 -414 185 -122 378 -273 515 -401 29 -28 72 -68 95 -90
22 -21 60 -56 83 -79 42 -41 63 -46 44 -10 -5 10 -19 45 -31 78 -80 216 -186
403 -322 565 -63 75 -243 259 -308 315 -90 78 -277 209 -380 267 -25 14 -63
36 -85 49 -22 12 -172 89 -333 171 -396 200 -454 232 -568 309 -165 111 -267
208 -388 368 -42 56 -79 101 -82 101 -3 0 -3 -3 0 -8 4 -6 8 -37 21 -162 1
-14 6 -60 10 -103 l7 -78 -197 131 c-225 149 -215 148 -221 26 -6 -135 -14
-251 -18 -271 -2 -11 -7 -47 -10 -80 -4 -33 -10 -76 -13 -95 -19 -123 -27
-233 -27 -370 0 -120 8 -267 19 -340 19 -120 51 -265 89 -399 43 -154 47 -191
19 -191 -33 0 -187 133 -438 380 -177 174 -240 242 -309 332 -83 109 -81 109
-100 46 -26 -91 -118 -582 -141 -748 -3 -25 -8 -56 -10 -70 -10 -63 -28 -215
-28 -237 0 -7 -4 -13 -7 -13 -4 0 -200 97 -436 215 -448 223 -666 344 -722
398 -75 72 -214 279 -195 290 20 11 97 21 253 32 88 6 185 15 220 20 14 2 45
7 70 10 48 7 209 44 300 69 160 45 413 163 563 264 308 206 464 382 618 697
174 357 275 805 215 950 -25 60 -127 102 -138 57z"/>
</g>
</svg>
